# xmcd
#
# Track frame offsets:
#	150
#	21895
#	42678
#	63080
#	80792
#	103406
#	124127
#	145808
#	167889
#	188038
#	209342
#	230955
#	252319
#	274634
#	296460
#
# Disc length: 4250 seconds
#
# Revision: 0
# Processed by: cddbd v1.5.2PL0 Copyright (c) Steve Scherf et al.
# Submitted via: EasyCDDAExtractor 15.3.0.1
#
DISCID=ea10980f
DTITLE=Luis Enrique - Tesoros De Coleccion - CD 2
DYEAR=2007
DGENRE=Latin
TTITLE0=Date Un Chance
TTITLE1=Amiga
TTITLE2=Hoy O Nunca
TTITLE3=El Amor Es Algo Mas
TTITLE4=Por Ti
TTITLE5=Lucia
TTITLE6=Dilema
TTITLE7=No Tienes Que Pedir Permiso
TTITLE8=Quimica Perfecta (Duo Con Yuri)
TTITLE9=Un Hombre Afortunado
TTITLE10=Vale La Traicion
TTITLE11=Asi Es La Vida
TTITLE12=Que Hablen
TTITLE13=Quien Eres Tu
TTITLE14=Al Son Del Amor
EXTD=
EXTT0=
EXTT1=
EXTT2=
EXTT3=
EXTT4=
EXTT5=
EXTT6=
EXTT7=
EXTT8=
EXTT9=
EXTT10=
EXTT11=
EXTT12=
EXTT13=
EXTT14=
PLAYORDER=
